# xmcd
#
# Track frame offsets:
#	150
#	12000
#	21900
#	31347
#	40467
#	50110
#	61212
#	70197
#	80032
#	90102
#	100830
#	112402
#	124695
#	135572
#	146392
#	158477
#	169540
#	180435
#	192110
#	203957
#	214175
#	222340
#	232912
#	243970
#
# Disc length: 3408 seconds
#
# Revision: 2
# Processed by: cddbd v1.5.2PL0 Copyright (c) Steve Scherf et al.
# Submitted via: EasyCDDAExtractor 15.2.5.1
#
DISCID=460d4e18
DTITLE=Skeeter Davis - The Pop Hits Collection
DYEAR=2003
DGENRE=Country
TTITLE0=The End Of The World
TTITLE1=Silver Threads And Golden Needles
TTITLE2=Keep Your Hands Off My Baby
TTITLE3=I'm Saving My Love
TTITLE4=I Can't Stay Mad At You
TTITLE5=I Will Follow Him
TTITLE6=My Sweet Loving Man
TTITLE7=Ladder Of Success
TTITLE8=Easy To Love (So Hard To Find)
TTITLE9=Gonna Get Along Without You Now
TTITLE10=Let Me Get Close To You
TTITLE11=What Am I Gonna Do With You
TTITLE12=Don't Let Me Stand In Your Way
TTITLE13=I Can't Help It (If I'm Still In Love With You)
TTITLE14=Sunglasses
TTITLE15=I Can't See Me Without You
TTITLE16=Don't Anybody Need My Love
TTITLE17=Under The Boardwalk
TTITLE18=A Summer Song
TTITLE19=Remember (Walkin' In The Sand)
TTITLE20=Please Don't Talk To The Lifeguard
TTITLE21=Summer Sunshine
TTITLE22=If I Had Wheels
TTITLE23=What Does It Take (To Keep A Man Like You Satisfied)
EXTD=YEAR: 2003
EXTT0=
EXTT1=
EXTT2=
EXTT3=
EXTT4=
EXTT5=
EXTT6=
EXTT7=
EXTT8=
EXTT9=
EXTT10=
EXTT11=
EXTT12=
EXTT13=
EXTT14=
EXTT15=
EXTT16=
EXTT17=
EXTT18=
EXTT19=
EXTT20=
EXTT21=
EXTT22=
EXTT23=
PLAYORDER=
